<?xml version="1.0" encoding="UTF-8"?>
<!-- Created with Inkscape (http://www.inkscape.org/) -->
<svg width="27.944mm" height="26.458mm" version="1.1" viewBox="0 0 27.944 26.458" xmlns="http://www.w3.org/2000/svg">
 <g transform="translate(-79.973 -90.768)">
  <path d="m93.946 90.768c-1.1675 1.7259-1.8296 3.4224-1.27 5.5033-1.0914-0.55948-2.1741-1.1212-3.3867-1.3935-3.3973-0.76282-5.9986 1.4267-6.3324 4.7801-0.37721 3.7896 1.419 8.2844 4.004 11.007-3.2634-1.3986-3.4324-4.5711-4.0217-7.62-1.7478 0.79194-1.9719 3.5012-1.2994 5.08 1.2153 2.8534 4.9845 4.2577 7.8611 4.4509 1.2231 0.0821 2.1608 0.53361 2.9633-0.64092-3.4175 0-5.0171-2.7437-6.1795-5.715-0.34053-0.87045-0.98491-2.4778-0.47625-3.3808 0.54102-0.96051 2.0866-1.314 3.0574-1.6287 3.711-1.2026 7.2487-0.29822 10.583 1.4111-0.77916-1.0939-2.1425-1.5637-3.3867-1.9755-3.6316-1.2021-6.7748-0.45833-10.372 0.28221v-0.21167c4.0853-1.5277 9.4054-1.7131 13.123 0.92899 2.3404 1.6632 4.6291 5.4038 1.6933 7.7494 0-2.0435-0.83029-6.5872-2.9633-7.4084 0.38403 1.2351 1.1504 2.3699 1.611 3.5983 1.2433 3.3154 1.0921 8.9514-3.516 9.3781-1.8594 0.17208-3.3034-1.0933-5.08-1.1231 1.5897 2.2005 6.1808 2.8871 8.255 1.0408 1.3306-1.1847 1.165-2.5741 1.8932-4.0041 0.98121-1.9266 2.9643-3.9355 5.0918-4.445v0.21167c-1.5955 0.38885-2.9684 1.4793-3.175 3.175 2.776 0.52487 3.4851-2.055 5.2917-3.5983-1.6085-1.2036-3.7336-0.63796-5.08 0.635 0-2.7186-1.2228-4.5053-3.5983-5.8855-0.87675-0.5094-1.9511-0.74507-2.7517-1.3641-2.2606-1.7478-2.9633-3.9967-2.9633-6.7204h0.21166c0 1.5475 0.22704 3.2406 1.2876 4.445 0.43329 0.49204 1.1729 1.3392 1.7815 0.61148 1.5621-1.8677-1.1387-3.974-2.0344-5.2682-0.41842-0.60455-0.47085-1.3204-0.82315-1.905m1.4817 8.6783c-0.93127-0.16434-1.3908-0.8306-2.1167-1.3935-1.1067-0.85824-2.4336-1.5959-3.81-1.905-0.5631-0.12645-1.5751-0.25324-2.0932 0.06466-1.0927 0.67052-0.72032 1.5559-2.3518 1.1171-0.3342 1.0749-0.92268 2.0163-1.0407 3.175-0.46126 4.5288 2.6609 7.5553 4.8507 11.007-1.4727-0.39021-2.39-2.1508-3.1339-3.3867-1.8317-3.0434-3.0374-7.2938-1.1642-10.583 0.28181-0.49486 0.43904-1.4501 0.93487-1.7521 0.7722-0.47041 3.1255-0.21357 3.9982-0.01763 1.068 0.23982 2.0257 0.61379 2.9633 1.1759 1.0882 0.65244 2.2723 1.428 2.9633 2.4989m-2.9633-0.635v0.21167l-6.1383 0.84667c0.99522-2.7225 4.1192-1.8219 6.1383-1.0583m3.175 2.54c1.5419 2.4964 3.5458 4.7076 3.5983 7.8317 0.40017-0.69459 0.15961-1.5653-0.0294-2.3283-0.43824-1.7693-1.4299-5.3506-3.5689-5.5033m-8.255 13.547h-0.21167c-0.63849-1.4336-1.9097-2.0428-3.3867-2.3283-0.81562 2.2572 1.4584 2.736 2.9633 3.5044 0.62577 0.3194 1.0666 0.87312 1.6933 1.1523l-0.635-4.0217c2.5347 0.92646 5.9174 0.44936 8.4667-0.24109 1.1984-0.32449 2.4266-0.69067 2.9633-1.8756-2.1986 0.35105-4.2428 1.8777-6.5617 2.1461-0.55402 0.0641-1.1265-0.22395-1.6933-0.24109-3.7915-0.11409-9.351-1.6579-9.9836-6.1383-0.29932-2.1198 1.5934-3.1867 1.7286-5.08-0.83437 0.30499-1.4657 0.94871-1.9638 1.6933-0.46388 0.69341-0.7628 1.4953-0.78787 2.3283-0.07935 2.637 1.1836 4.373 3.3867 5.7855 1.5654 1.0037 3.1958 1.462 4.0217 3.3162m11.642-4.6567c-1.9995 1.2182-4.0276 1.6933-6.35 1.6933 0.68135 1.535 3.992-0.0641 5.08-0.58797 0.53488-0.25754 1.27-0.50464 1.27-1.1054m-6.5617 3.5983v0.21166l0.84667 0.21167v-0.21167l-0.84667-0.21166m-4.8683 1.0583 0.21167 0.635z" fill="#0a8"/>
 </g>
</svg>
